<svg xmlns="http://www.w3.org/2000/svg" x="0px" y="0px"
     width="64" height="64"
     viewBox="0 0 32 32"
     style=" fill:#000000;"><g ><path d="M29.924,8.62a.989.989,0,0,0-.217-.327l-6-6a1,1,0,0,0-.291-.2.912.912,0,0,0-.1-.035,1,1,0,0,0-.248-.05C23.044,2.012,23.023,2,23,2H15a1,1,0,0,0,0,2h7V7a3,3,0,0,0,3,3,1,1,0,0,0,0-2,1,1,0,0,1-1-1V5.414l4,4V23a1,1,0,0,1-1,1H20V22h5a1,1,0,0,0,0-2H20V18h5a1,1,0,0,0,0-2H20V14h5a1,1,0,0,0,0-2H19.414L13.707,6.293a.992.992,0,0,0-.294-.2c-.03-.013-.06-.021-.09-.032a1.008,1.008,0,0,0-.261-.052C13.041,6.011,13.021,6,13,6H5A3,3,0,0,0,2,9V27a3,3,0,0,0,3,3H17a3,3,0,0,0,3-3V26h7a3,3,0,0,0,3-3V9A1,1,0,0,0,29.924,8.62ZM18,27a1,1,0,0,1-1,1H5a1,1,0,0,1-1-1V9A1,1,0,0,1,5,8h7v3a3,3,0,0,0,3,3,1,1,0,0,0,0-2,1,1,0,0,1-1-1V9.414l4,4Z"></path><path d="M15,16H7a1,1,0,0,0,0,2h8a1,1,0,0,0,0-2Z"></path><path d="M15,20H7a1,1,0,0,0,0,2h8a1,1,0,0,0,0-2Z"></path><path d="M15,24H7a1,1,0,0,0,0,2h8a1,1,0,0,0,0-2Z"></path></g></svg>